<?xml version="1.0" standalone="no"?>
<!DOCTYPE svg PUBLIC "-//W3C//DTD SVG 20010904//EN"
 "http://www.w3.org/TR/2001/REC-SVG-20010904/DTD/svg10.dtd">
<svg version="1.0" xmlns="http://www.w3.org/2000/svg"
 width="260.000000pt" height="260.000000pt" viewBox="0 0 260.000000 260.000000"
 preserveAspectRatio="xMidYMid meet">
<metadata>
Created by potrace 1.14, written by Peter Selinger 2001-2017
</metadata>
<g transform="translate(0.000000,260.000000) scale(0.100000,-0.100000)"
fill="#000000" stroke="none">
<path d="M850 2565 l0 -35 -65 0 -65 0 0 -30 0 -30 -65 0 -65 0 0 -35 c0 -33
-2 -35 -35 -35 -32 0 -35 -2 -35 -30 l0 -30 -65 0 -65 0 0 -35 c0 -32 -2 -35
-30 -35 l-30 0 0 -65 0 -65 -35 0 c-32 0 -35 -2 -35 -30 0 -27 -3 -30 -30 -30
l-30 0 0 -65 0 -65 -35 0 -35 0 0 -65 0 -65 -30 0 -30 0 0 -130 0 -130 -35 0
-35 0 0 -195 0 -195 35 0 35 0 0 -130 0 -130 30 0 30 0 0 -100 0 -100 35 0
c32 0 35 -2 35 -30 0 -27 3 -30 30 -30 l30 0 0 -65 0 -65 35 0 c33 0 35 -2 35
-35 0 -32 2 -35 30 -35 27 0 30 -3 30 -30 l0 -30 65 0 65 0 0 -35 c0 -33 2
-35 35 -35 32 0 35 -2 35 -30 l0 -30 65 0 65 0 0 -35 0 -35 95 0 95 0 0 -30 0
-30 130 0 130 0 0 -65 0 -65 130 0 130 0 0 65 0 65 130 0 130 0 0 30 0 30 65
0 65 0 0 35 0 35 65 0 65 0 0 30 c0 28 3 30 35 30 l35 0 0 65 0 65 30 0 c28 0
30 3 30 35 0 33 2 35 35 35 l35 0 0 -65 0 -65 -35 0 c-33 0 -35 -2 -35 -35 0
-33 2 -35 35 -35 32 0 35 -2 35 -30 0 -27 3 -30 30 -30 28 0 30 -3 30 -35 l0
-35 65 0 65 0 0 35 c0 33 2 35 35 35 l35 0 0 95 0 95 -35 0 c-33 0 -35 2 -35
35 l0 35 -95 0 -95 0 0 30 0 30 65 0 65 0 0 35 c0 32 2 35 30 35 27 0 30 3 30
30 0 28 3 30 35 30 l35 0 0 65 0 65 30 0 30 0 0 130 0 130 35 0 c33 0 35 2 35
35 0 33 -2 35 -35 35 -32 0 -35 2 -35 30 0 28 3 30 35 30 33 0 35 2 35 35 0
33 -2 35 -35 35 -33 0 -35 -2 -35 -35 l0 -35 -65 0 -65 0 0 35 c0 33 2 35 35
35 32 0 35 2 35 30 l0 30 65 0 65 0 0 130 0 130 -35 0 -35 0 0 130 0 130 -30
0 -30 0 0 65 0 65 -35 0 c-33 0 -35 2 -35 35 0 32 -2 35 -30 35 l-30 0 0 65 0
65 -35 0 c-32 0 -35 2 -35 30 0 27 -3 30 -30 30 -28 0 -30 3 -30 35 l0 35 -65
0 -65 0 0 30 c0 28 -3 30 -35 30 -33 0 -35 2 -35 35 l0 35 -65 0 -65 0 0 30 0
30 -65 0 -65 0 0 35 0 35 -420 0 -420 0 0 -35z m520 -420 l0 -65 -35 0 -35 0
0 -100 0 -100 -30 0 -30 0 0 -95 0 -95 -35 0 c-33 0 -35 -2 -35 -35 l0 -35
195 0 195 0 0 -30 0 -30 65 0 65 0 0 -35 c0 -32 -2 -35 -30 -35 -27 0 -30 -3
-30 -30 0 -28 -3 -30 -35 -30 l-35 0 0 -65 0 -65 -30 0 c-28 0 -30 -3 -30 -35
0 -33 -2 -35 -35 -35 l-35 0 0 -65 0 -65 -30 0 c-27 0 -30 -3 -30 -30 0 -28
-3 -30 -35 -30 l-35 0 0 -65 0 -65 -30 0 c-28 0 -30 -3 -30 -35 0 -33 -2 -35
-35 -35 l-35 0 0 -65 0 -65 -30 0 c-27 0 -30 -3 -30 -30 0 -28 -3 -30 -35 -30
l-35 0 0 65 0 65 35 0 35 0 0 95 0 95 30 0 30 0 0 65 0 65 35 0 35 0 0 130 0
130 -195 0 -195 0 0 65 0 65 30 0 30 0 0 65 0 65 35 0 c33 0 35 2 35 35 0 32
2 35 30 35 l30 0 0 65 0 65 35 0 35 0 0 65 0 65 30 0 c27 0 30 3 30 30 0 28 3
30 35 30 l35 0 0 65 0 65 30 0 c28 0 30 3 30 35 0 33 2 35 35 35 l35 0 0 -65z
m-850 -230 c0 -32 -2 -35 -30 -35 -27 0 -30 -3 -30 -30 0 -28 -3 -30 -35 -30
-32 0 -35 2 -35 30 0 27 -3 30 -30 30 -28 0 -30 3 -30 35 l0 35 95 0 95 0 0
-35z m1950 -455 c0 -27 -3 -30 -30 -30 -28 0 -30 -3 -30 -35 l0 -35 -65 0 -65
0 0 35 0 35 65 0 65 0 0 30 c0 27 3 30 30 30 27 0 30 -3 30 -30z"/>
</g>
</svg>
